<svg xmlns="http://www.w3.org/2000/svg" viewBox="0 0 70 70"><rect x="2.5" y="2.5" width="15" height="15" rx="2.5" style="fill:#c98cbd"/><path d="M20,10V20H10V10H20m0-5H10a5,5,0,0,0-5,5V20a5,5,0,0,0,5,5H20a5,5,0,0,0,5-5V10a5,5,0,0,0-5-5Z" transform="translate(-5 -5)" style="fill:#fff"/><rect x="27.5" y="2.5" width="15" height="15" rx="2.5" style="fill:#6e426d"/><path d="M45,10V20H35V10H45m0-5H35a5,5,0,0,0-5,5V20a5,5,0,0,0,5,5H45a5,5,0,0,0,5-5V10a5,5,0,0,0-5-5Z" transform="translate(-5 -5)" style="fill:#c88cbd"/><rect x="52.5" y="2.5" width="15" height="15" rx="2.5" style="fill:#6e426d"/><path d="M70,10V20H60V10H70m0-5H60a5,5,0,0,0-5,5V20a5,5,0,0,0,5,5H70a5,5,0,0,0,5-5V10a5,5,0,0,0-5-5Z" transform="translate(-5 -5)" style="fill:#c88cbd"/><rect x="2.5" y="27.5" width="15" height="15" rx="2.5" style="fill:#c98cbd"/><path d="M20,35V45H10V35H20m0-5H10a5,5,0,0,0-5,5V45a5,5,0,0,0,5,5H20a5,5,0,0,0,5-5V35a5,5,0,0,0-5-5Z" transform="translate(-5 -5)" style="fill:#fff"/><rect x="27.5" y="27.5" width="15" height="15" rx="2.5" style="fill:#c98cbd"/><path d="M45,35V45H35V35H45m0-5H35a5,5,0,0,0-5,5V45a5,5,0,0,0,5,5H45a5,5,0,0,0,5-5V35a5,5,0,0,0-5-5Z" transform="translate(-5 -5)" style="fill:#fff"/><rect x="52.5" y="27.5" width="15" height="15" rx="2.5" style="fill:#6e426d"/><path d="M70,35V45H60V35H70m0-5H60a5,5,0,0,0-5,5V45a5,5,0,0,0,5,5H70a5,5,0,0,0,5-5V35a5,5,0,0,0-5-5Z" transform="translate(-5 -5)" style="fill:#c88cbd"/><rect x="2.5" y="52.5" width="15" height="15" rx="2.5" style="fill:#c98cbd"/><path d="M20,60V70H10V60H20m0-5H10a5,5,0,0,0-5,5V70a5,5,0,0,0,5,5H20a5,5,0,0,0,5-5V60a5,5,0,0,0-5-5Z" transform="translate(-5 -5)" style="fill:#fff"/><rect x="27.5" y="52.5" width="15" height="15" rx="2.5" style="fill:#6e426d"/><path d="M45,60V70H35V60H45m0-5H35a5,5,0,0,0-5,5V70a5,5,0,0,0,5,5H45a5,5,0,0,0,5-5V60a5,5,0,0,0-5-5Z" transform="translate(-5 -5)" style="fill:#c88cbd"/></svg>